<svg width="24" height="24" viewBox="0 0 24 24" fill="none" xmlns="http://www.w3.org/2000/svg">
<rect width="24" height="24" rx="12" fill="#E0E5ED"/>
<path d="M16.5056 8.56637C16.4122 8.52451 16.3212 8.47862 16.2331 8.42888C15.9767 8.282 15.7417 8.10893 15.533 7.9134C15.011 7.39568 14.816 6.87046 14.7442 6.50272H14.7471C14.6871 6.19749 14.7119 6 14.7156 6H12.3378V13.9691C12.3378 14.0761 12.3378 14.1818 12.3326 14.2863C12.3326 14.2993 12.3311 14.3113 12.3303 14.3253C12.3303 14.3311 12.3303 14.3371 12.3288 14.3431C12.3288 14.3446 12.3288 14.3461 12.3288 14.3476C12.3038 14.6335 12.198 14.9097 12.0209 15.1519C11.8437 15.3941 11.6006 15.5949 11.313 15.7365C11.0132 15.8843 10.6741 15.9619 10.3291 15.9615C9.22125 15.9615 8.32336 15.1785 8.32336 14.2116C8.32336 13.2446 9.22125 12.4617 10.3291 12.4617C10.5388 12.4615 10.7473 12.4901 10.9467 12.5464L10.9495 10.448C10.3442 10.3803 9.72928 10.422 9.14348 10.5705C8.55769 10.719 8.01377 10.9711 7.54603 11.311C7.13619 11.6196 6.79163 11.9879 6.52786 12.3992C6.42749 12.5492 6.04878 13.1519 6.00292 14.1301C5.97407 14.6853 6.16646 15.2605 6.25818 15.4983V15.5033C6.31587 15.6433 6.5394 16.121 6.90369 16.5237C7.19744 16.8468 7.5445 17.1306 7.93369 17.3659V17.3609L7.93946 17.3659C9.09059 18.0439 10.3669 17.9994 10.3669 17.9994C10.5878 17.9917 11.328 17.9994 12.1685 17.6542C13.1007 17.2714 13.6314 16.7012 13.6314 16.7012C13.9704 16.3605 14.24 15.9722 14.4286 15.553C14.6438 15.0628 14.7156 14.4748 14.7156 14.2398V10.012C14.7445 10.027 15.1286 10.2473 15.1286 10.2473C15.1286 10.2473 15.6822 10.5548 16.5457 10.755C17.1653 10.8975 18 10.9275 18 10.9275V8.88161C17.7075 8.9091 17.1136 8.82911 16.5056 8.56637Z" fill="#1B1C1F"/>
</svg>
