<svg width="24" height="24" viewBox="0 0 24 24" fill="none" xmlns="http://www.w3.org/2000/svg">
<g clip-path="url(#clip0_62_1936)">
<path d="M12 0C5.37285 0 0 5.37285 0 12C0 18.6272 5.37285 24 12 24C18.6272 24 24 18.6272 24 12C24 5.37285 18.6272 0 12 0ZM19.2183 15.6089C19.2183 17.6172 17.5849 19.2507 15.5766 19.2507H8.42345C6.41538 19.2507 4.78166 17.6172 4.78166 15.6089V8.4558C4.78166 6.44774 6.41538 4.81401 8.42345 4.81401H15.5766C17.5849 4.81401 19.2183 6.44774 19.2183 8.4558V15.6089Z" fill="#F2F2F2"/>
<path fillRule="evenodd" clipRule="evenodd" d="M8.42366 6.38525H15.5768C16.7188 6.38525 17.6477 7.31415 17.6477 8.45589V15.609C17.6477 16.751 16.7185 17.6799 15.5768 17.6799H8.42366C7.28192 17.6799 6.35303 16.7507 6.35303 15.609V8.45589C6.35303 7.31415 7.28192 6.38525 8.42366 6.38525ZM8.28221 12.0324C8.28221 14.0828 9.95017 15.7507 12.0002 15.7507C14.0503 15.7507 15.7185 14.0825 15.7185 12.0324C15.7185 9.98239 14.0505 8.31444 12.0002 8.31444C9.95017 8.31444 8.28221 9.98239 8.28221 12.0324ZM14.958 8.20348C14.958 8.68851 15.3527 9.08318 15.838 9.08318C16.323 9.08318 16.7177 8.68851 16.7177 8.20348C16.7177 7.71844 16.323 7.32378 15.838 7.32378C15.3527 7.32378 14.958 7.71844 14.958 8.20348ZM9.85313 12.0321C9.85313 10.8486 10.8168 9.8855 12.0002 9.8855C13.184 9.8855 14.1471 10.8489 14.1471 12.0321C14.1471 13.2161 13.1842 14.1794 12.0002 14.1794C10.8168 14.1794 9.85313 13.2161 9.85313 12.0321Z" fill="#F2F2F2"/>
</g>
<defs>
<clipPath id="clip0_62_1936">
<rect width="24" height="24" fill="white"/>
</clipPath>
</defs>
</svg>
