<svg
                width="220"
                height="64"
                viewBox="0 0 220 64"
                fill="none"
                xmlns="http://www.w3.org/2000/svg">
                <path
                  fillRule="evenodd"
                  clipRule="evenodd"
                  d="M212.882 2.03636V61.9636H181.513V2.03636H212.882ZM75.1152 21.4322C76.609 21.4322 78.0921 21.5396 79.5645 21.7544C81.0369 21.9692 82.3706 22.4095 83.5656 23.0753C84.7606 23.7412 85.7209 24.6755 86.4464 25.8784C87.172 27.0812 87.5348 28.6492 87.5348 30.5824V47.7229C87.5348 49.0116 87.6094 49.9567 87.7588 50.5581C87.9082 51.1595 88.4097 51.4603 89.2632 51.4603C89.7327 51.4603 90.2875 51.3529 90.9277 51.1381V55.391C89.9888 55.9494 88.6871 56.2287 87.0226 56.2287C85.6142 56.2287 84.4939 55.8313 83.6617 55.0366C82.8294 54.2418 82.4133 52.9423 82.4133 51.1381C80.9195 52.9423 79.1804 54.2418 77.1958 55.0366C75.2113 55.8313 73.0667 56.2287 70.762 56.2287C69.2682 56.2287 67.8492 56.0568 66.5048 55.7132C65.1604 55.3695 63.9974 54.8325 63.0158 54.1022C62.0342 53.3719 61.2553 52.4161 60.6792 51.2347C60.103 50.0534 59.8149 48.625 59.8149 46.9496C59.8149 45.0594 60.135 43.5129 60.7752 42.3101C61.4154 41.1072 62.2583 40.1299 63.3039 39.3781C64.3495 38.6264 65.5445 38.0572 66.8889 37.6705C68.2333 37.2839 69.6097 36.9617 71.0181 36.704C72.5118 36.4033 73.9309 36.1777 75.2753 36.0274C76.6197 35.877 77.804 35.6622 78.8283 35.383C79.8526 35.1038 80.6635 34.6957 81.261 34.1587C81.8585 33.6217 82.1572 32.8377 82.1572 31.8067C82.1572 30.6038 81.9332 29.6373 81.485 28.907C81.0369 28.1767 80.4608 27.6182 79.7566 27.2316C79.0523 26.845 78.2628 26.5872 77.3879 26.4583C76.513 26.3295 75.6487 26.265 74.7952 26.265C72.4905 26.265 70.57 26.7053 69.0335 27.586C67.4971 28.4667 66.6649 30.1313 66.5368 32.5799H61.0953C61.1806 30.5179 61.6074 28.7781 62.3756 27.3605C63.1439 25.9428 64.1681 24.7937 65.4485 23.913C66.7289 23.0324 68.1906 22.3988 69.8338 22.0121C71.4769 21.6255 73.2374 21.4322 75.1152 21.4322ZM142.974 21.4322C145.919 21.4322 148.363 22.0443 150.304 23.2687C152.246 24.493 153.804 26.0502 154.978 27.9404C156.151 29.8306 156.962 31.8926 157.41 34.1265C157.859 36.3603 158.04 38.4867 157.955 40.5058H133.18C133.137 41.9664 133.308 43.3518 133.692 44.6621C134.076 45.9723 134.695 47.1322 135.548 48.1417C136.402 49.1512 137.49 49.9567 138.813 50.5581C140.136 51.1595 141.694 51.4603 143.487 51.4603C145.791 51.4603 147.68 50.9233 149.152 49.8493C150.625 48.7753 151.596 47.1429 152.065 44.952H157.442C156.717 48.6894 155.117 51.5032 152.641 53.3934C150.166 55.2836 147.05 56.2287 143.294 56.2287C140.648 56.2287 138.354 55.7991 136.413 54.9399C134.471 54.0807 132.838 52.8779 131.515 51.3314C130.192 49.7849 129.2 47.9377 128.538 45.7897C127.877 43.6418 127.503 41.3006 127.418 38.766C127.418 36.2314 127.802 33.9117 128.57 31.8067C129.339 29.7017 130.416 27.876 131.803 26.3295C133.19 24.7829 134.833 23.5801 136.733 22.7209C138.632 21.8618 140.712 21.4322 142.974 21.4322ZM195.853 21.4322C194.402 21.4322 192.941 21.6148 191.468 21.9799C189.996 22.3451 188.673 22.9035 187.499 23.6553C186.325 24.4071 185.365 25.3844 184.618 26.5872C183.871 27.7901 183.498 29.2292 183.498 30.9046C183.498 33.0525 184.031 34.7279 185.098 35.9307C186.165 37.1336 187.499 38.0679 189.099 38.7338C190.7 39.3996 192.439 39.9151 194.317 40.2803C196.195 40.6454 197.934 41.0535 199.534 41.5046C201.135 41.9557 202.469 42.5463 203.536 43.2766C204.602 44.0069 205.136 45.0809 205.136 46.4985C205.136 47.5295 204.88 48.378 204.368 49.0438C203.856 49.7097 203.205 50.2145 202.415 50.5581C201.626 50.9018 200.761 51.1381 199.822 51.2669C198.884 51.3958 197.987 51.4603 197.134 51.4603C196.024 51.4603 194.946 51.3529 193.901 51.1381C192.855 50.9233 191.916 50.5689 191.084 50.0748C190.252 49.5808 189.58 48.915 189.067 48.0773C188.555 47.2396 188.278 46.2193 188.235 45.0165H182.794C182.879 47.0785 183.306 48.829 184.074 50.2682C184.842 51.7073 185.867 52.8671 187.147 53.7478C188.427 54.6285 189.9 55.2621 191.564 55.6487C193.229 56.0353 194.978 56.2287 196.814 56.2287C198.478 56.2287 200.153 56.0676 201.839 55.7454C203.525 55.4232 205.04 54.854 206.384 54.0378C207.729 53.2216 208.817 52.1476 209.649 50.8159C210.481 49.4842 210.898 47.8088 210.898 45.7897C210.898 44.2002 210.588 42.8685 209.969 41.7946C209.35 40.7206 208.54 39.8292 207.537 39.1204C206.534 38.4116 205.381 37.8424 204.08 37.4128C202.778 36.9832 201.444 36.6181 200.079 36.3173C198.798 36.0166 197.518 35.7267 196.237 35.4474C194.957 35.1682 193.805 34.8245 192.78 34.4164C191.756 34.0083 190.913 33.4928 190.252 32.8699C189.59 32.247 189.259 31.463 189.259 30.5179C189.259 29.6588 189.473 28.9607 189.9 28.4237C190.326 27.8867 190.881 27.4571 191.564 27.1349C192.247 26.8127 193.005 26.5872 193.837 26.4583C194.669 26.3295 195.491 26.265 196.301 26.265C197.198 26.265 198.083 26.3617 198.958 26.555C199.833 26.7483 200.633 27.0598 201.359 27.4893C202.084 27.9189 202.682 28.4881 203.151 29.197C203.621 29.9058 203.898 30.7972 203.984 31.8711H209.425C209.297 29.8521 208.87 28.166 208.145 26.8127C207.419 25.4595 206.448 24.3856 205.232 23.5909C204.016 22.7961 202.618 22.2377 201.039 21.9155C199.46 21.5933 197.731 21.4322 195.853 21.4322ZM42.402 21.4322C44.0665 21.4322 45.5709 21.6148 46.9153 21.9799C48.2597 22.3451 49.412 22.9142 50.3722 23.6875C51.3325 24.4608 52.0794 25.4595 52.6129 26.6839C53.1464 27.9082 53.4131 29.3795 53.4131 31.0979V55.5198H47.9716V33.6754C47.9716 32.6444 47.8862 31.6778 47.7155 30.7757C47.5448 29.8735 47.2247 29.0896 46.7552 28.4237C46.2858 27.7578 45.6349 27.2316 44.8027 26.845C43.9704 26.4583 42.8928 26.265 41.5698 26.265C38.881 26.265 36.7684 27.0383 35.232 28.5848C33.6955 30.1313 32.9273 32.1933 32.9273 34.7708V55.5198H27.4858V33.6754C27.4858 32.6014 27.3898 31.6134 27.1977 30.7112C27.0056 29.8091 26.6749 29.0251 26.2054 28.3593C25.736 27.6934 25.1065 27.1779 24.3169 26.8127C23.5273 26.4476 22.5137 26.265 21.276 26.265C19.6969 26.265 18.3419 26.5872 17.2109 27.2316C16.0799 27.876 15.1623 28.6492 14.4581 29.5514C13.7539 30.4535 13.2418 31.3878 12.9217 32.3544C12.6016 33.321 12.4415 34.1264 12.4415 34.7708V55.5198H7V22.2054H12.1214V27.1027H12.2495C14.7249 23.3223 18.2885 21.4322 22.9405 21.4322C24.9891 21.4322 26.8456 21.8618 28.5101 22.7209C30.1746 23.5801 31.3482 25.0407 32.0311 27.1027C33.1407 25.2984 34.6025 23.9023 36.4163 22.9143C38.2302 21.9262 40.2254 21.4322 42.402 21.4322ZM101.747 9.51116V36.7684L116.855 22.2054H124.153L111.029 34.3198L125.113 55.5198H118.199L106.868 38.1216L101.747 42.89V55.5198H96.3052V9.51116H101.747ZM180.809 21.4322V27.2316C178.632 27.2316 176.776 27.5323 175.24 28.1337C173.703 28.7351 172.465 29.6158 171.526 30.7757C170.588 31.9356 169.905 33.3424 169.478 34.9964C169.051 36.6503 168.838 38.5512 168.838 40.6991V55.5198H163.396V22.2054H168.518V29.2292H168.646C169.969 26.5228 171.59 24.5252 173.511 23.2364C175.432 21.9477 177.864 21.3463 180.809 21.4322ZM82.0932 38.3149C81.4103 38.8304 80.5141 39.2063 79.4045 39.4426C78.2948 39.6789 77.1318 39.8722 75.9155 40.0225C74.6991 40.1729 73.4721 40.3447 72.2344 40.538C70.9967 40.7313 69.8871 41.0428 68.9055 41.4724C67.9239 41.902 67.1237 42.5141 66.5048 43.3089C65.886 44.1036 65.5765 45.1883 65.5765 46.563C65.5765 47.4651 65.7579 48.2276 66.1207 48.8505C66.4835 49.4734 66.9529 49.9782 67.5291 50.3648C68.1053 50.7514 68.7774 51.0307 69.5457 51.2025C70.3139 51.3743 71.1248 51.4603 71.9784 51.4603C73.7709 51.4603 75.3073 51.2132 76.5877 50.7192C77.868 50.2252 78.9136 49.6023 79.7245 48.8505C80.5354 48.0987 81.1329 47.2825 81.5171 46.4019C81.9012 45.5212 82.0932 44.6943 82.0932 43.921V38.3149ZM142.654 26.265C141.246 26.265 139.976 26.512 138.845 27.0061C137.714 27.5001 136.743 28.1767 135.932 29.0359C135.122 29.895 134.481 30.8938 134.012 32.0322C133.542 33.1706 133.265 34.3842 133.18 35.673H152.193C152.108 34.3842 151.82 33.1599 151.329 32C150.838 30.8401 150.176 29.8413 149.344 29.0036C148.512 28.1659 147.53 27.5001 146.399 27.0061C145.268 26.512 144.02 26.265 142.654 26.265Z"
                  fill="black"
                />
              </svg> 