<svg width="362" height="280" viewBox="0 0 362 280" fill="none" xmlns="http://www.w3.org/2000/svg">
<g clip-path="url(#clip0_1027_5154)">
<path d="M365.201 241.003C360.551 243.805 36.2679 336.483 30.5849 336.898C26.2451 337.23 20.9547 336.524 18.8262 332.747C24.2405 342.274 24.9018 342.066 27.5264 342.647C29.8659 342.999 32.2393 343.061 34.594 342.834C35.8438 342.721 37.086 342.534 38.3138 342.274C44.1001 341.028 358.195 251.61 363.444 248.974C373.942 243.556 371.979 242.747 371.607 232.057C371.752 235.918 368.487 239.011 365.201 241.003Z" fill="#113B9D"/>
<path d="M299.257 160.364L368.962 226.785C370.317 227.974 371.228 229.592 371.545 231.372C371.751 233.069 371.348 234.783 370.408 236.208C369.219 238.055 367.639 239.614 365.779 240.775C363.347 242.28 360.708 243.42 357.947 244.158L36.7633 335.715C34.0204 336.539 31.1742 336.965 28.3111 336.981C26.1738 337.01 24.0564 336.564 22.1115 335.673C20.541 334.961 19.2893 333.689 18.5983 332.103C17.9291 330.414 17.8561 328.546 18.3917 326.81L42.8183 233.676L299.257 160.364Z" fill="#437CFF"/>
<path d="M299.298 160.51L256.851 10.5237C256.544 9.49001 255.847 8.61722 254.91 8.09029C253.973 7.56336 252.868 7.42368 251.83 7.70086L2.9548 78.7294C1.92484 79.0426 1.05715 79.747 0.536171 80.6928C0.0151915 81.6385 -0.117986 82.7511 0.16495 83.7939L42.5913 233.78L299.298 160.51Z" fill="#437CFF"/>
<path d="M246.916 22.391L13.8965 88.8838L50.736 219.124L283.756 152.631L246.916 22.391Z" fill="url(#paint0_linear_1027_5154)"/>
<path d="M159.31 209.454L161.315 218.649L140.835 224.481L139.637 215.058L159.31 209.454Z" fill="url(#paint1_linear_1027_5154)"/>
<path d="M135.648 216.199L136.702 225.768L116.036 231.684L115.768 221.866L135.648 216.199Z" fill="url(#paint2_linear_1027_5154)"/>
<path d="M111.8 223.007L111.882 232.867L91.1963 238.761L91.9196 228.674L111.8 223.007Z" fill="url(#paint3_linear_1027_5154)"/>
<path d="M183.365 202.583L186.361 211.591L165.675 217.507L163.484 208.25L183.365 202.583Z" fill="url(#paint4_linear_1027_5154)"/>
<path d="M207.234 195.775L211.181 204.513L190.495 210.429L187.354 201.441L207.234 195.775Z" fill="url(#paint5_linear_1027_5154)"/>
<path d="M231.081 188.946L236 197.435L215.314 203.33L211.201 194.633L231.081 188.946Z" fill="url(#paint6_linear_1027_5154)"/>
<path d="M278.818 175.33L285.659 183.259L240.153 196.252L235.069 187.825L278.818 175.33Z" fill="url(#paint7_linear_1027_5154)"/>
<path d="M87.9103 229.981L87.063 239.945L66.6455 245.777L68.2781 235.586L87.9103 229.981Z" fill="url(#paint8_linear_1027_5154)"/>
<path d="M199.483 209.931L203.327 219.728L181.587 225.934L178.632 215.867L199.483 209.931Z" fill="url(#paint9_linear_1027_5154)"/>
<path d="M224.51 202.77L229.407 212.276L207.667 218.483L203.658 208.727L224.51 202.77Z" fill="url(#paint10_linear_1027_5154)"/>
<path d="M249.536 195.629L255.508 204.824L233.768 211.031L228.685 201.586L249.536 195.629Z" fill="url(#paint11_linear_1027_5154)"/>
<path d="M99.4006 238.492L98.9666 249.513L64.1865 259.435L66.0258 248.019L99.4006 238.492Z" fill="url(#paint12_linear_1027_5154)"/>
<path d="M149.452 224.211L151.147 234.61L129.407 240.816L128.58 230.168L149.452 224.211Z" fill="url(#paint13_linear_1027_5154)"/>
<path d="M124.427 231.352L125.067 242.062L103.307 248.268L103.555 237.309L124.427 231.352Z" fill="url(#paint14_linear_1027_5154)"/>
<path d="M287.085 184.919L294.648 193.658L259.848 203.579L253.71 194.447L287.085 184.919Z" fill="url(#paint15_linear_1027_5154)"/>
<path d="M181.98 228.093L185.183 239.114L162.513 245.59L160.281 234.299L181.98 228.093Z" fill="url(#paint16_linear_1027_5154)"/>
<path d="M218.269 252.398L229.16 271.723L152.677 293.558L149.494 272.034L218.269 252.398Z" fill="url(#paint17_linear_1027_5154)"/>
<path d="M208.515 220.537L212.937 231.33L190.04 237.869L186.589 226.785L208.515 220.537Z" fill="url(#paint18_linear_1027_5154)"/>
<path d="M234.822 213.023L240.443 223.485L217.525 230.023L212.896 219.271L234.822 213.023Z" fill="url(#paint19_linear_1027_5154)"/>
<path d="M103.265 250.572L102.976 262.714L61.748 274.483L63.7939 261.843L103.265 250.572Z" fill="url(#paint20_linear_1027_5154)"/>
<path d="M129.572 243.058L130.482 254.869L107.563 261.407L107.646 249.327L129.572 243.058Z" fill="url(#paint21_linear_1027_5154)"/>
<path d="M296.219 195.484L304.589 205.178L245.01 222.177L239.203 211.778L296.219 195.484Z" fill="url(#paint22_linear_1027_5154)"/>
<path d="M155.879 235.544L157.966 247.023L135.048 253.561L133.953 241.813L155.879 235.544Z" fill="url(#paint23_linear_1027_5154)"/>
<path d="M306.345 207.211L315.665 218.005L291.466 224.917L283.241 213.812L306.345 207.211Z" fill="url(#paint24_linear_1027_5154)"/>
<path d="M278.612 215.12L286.61 226.287L262.41 233.198L255.487 221.72L278.612 215.12Z" fill="url(#paint25_linear_1027_5154)"/>
<path d="M250.858 223.049L257.574 234.589L121.988 273.279L121.43 259.995L250.858 223.049Z" fill="url(#paint26_linear_1027_5154)"/>
<path d="M174.251 217.133L176.979 227.117L155.466 233.261L153.606 223.007L174.251 217.133Z" fill="url(#paint27_linear_1027_5154)"/>
<path d="M116.801 261.324L117.153 274.67L92.9326 281.582L93.6766 267.904L116.801 261.324Z" fill="url(#paint28_linear_1027_5154)"/>
<path d="M89.0474 269.232L88.0967 282.952L59.041 291.255L61.3142 277.161L89.0474 269.232Z" fill="url(#paint29_linear_1027_5154)"/>
<path d="M187.793 0.0742972L85.9732 10.9864C78.4723 11.7902 73.0414 18.5397 73.8431 26.0617L81.1435 94.566C81.9451 102.088 88.6757 107.534 96.1766 106.73L197.997 95.8183C205.498 95.0144 210.929 88.2649 210.127 80.7429L202.826 12.2386C202.025 4.71657 195.294 -0.729576 187.793 0.0742972Z" fill="#437CFF"/>
<g style="mix-blend-mode:screen">
<path d="M138.311 31.0249L137.395 21.769L88.1293 26.6741L89.0457 35.9299L138.311 31.0249Z" fill="#437CFF"/>
<path d="M170.409 41.0587L169.494 31.8027L89.4389 39.7592L90.3537 49.0152L170.409 41.0587Z" fill="#437CFF"/>
<path d="M156.624 55.6489L155.708 46.3931L90.7453 52.861L91.6617 62.1168L156.624 55.6489Z" fill="#437CFF"/>
<path d="M184.336 66.1163L183.421 56.8604L92.0134 65.9451L92.9282 75.2011L184.336 66.1163Z" fill="#437CFF"/>
<path d="M195.338 78.2369L194.423 68.981L93.3306 79.0282L94.2454 88.2842L195.338 78.2369Z" fill="#437CFF"/>
</g>
<path d="M62.5454 130.792L61.896 170.911C61.8477 173.892 64.218 176.347 67.1902 176.396L94.42 176.839C97.3921 176.887 99.8407 174.51 99.8889 171.53L100.538 131.41C100.587 128.43 98.2163 125.974 95.2441 125.926L68.0144 125.483C65.0422 125.434 62.5936 127.811 62.5454 130.792Z" fill="#437CFF"/>
<g style="mix-blend-mode:screen">
<path d="M83.8916 162.519C82.5239 162.492 81.2223 161.924 80.2709 160.938C79.3196 159.952 78.7958 158.629 78.814 157.257L78.9832 146.276H82.3683L82.1991 157.257C82.1991 157.707 82.3774 158.139 82.6948 158.457C83.0122 158.776 83.4427 158.955 83.8916 158.955C84.3405 158.955 84.7711 158.776 85.0885 158.457C85.4059 158.139 85.5842 157.707 85.5842 157.257L85.7873 143.899C85.8053 142.684 85.341 141.511 84.4967 140.639C84.0786 140.207 83.5798 139.862 83.0288 139.623C82.4777 139.385 81.8852 139.258 81.2851 139.249C80.0731 139.231 78.9036 139.696 78.0339 140.543C77.1641 141.39 76.6654 142.548 76.6475 143.763L76.5121 152.148H73.127L73.2624 143.662C73.2801 142.605 73.5053 141.562 73.9249 140.593C74.3445 139.624 74.9504 138.747 75.7079 138.013C76.4655 137.278 77.3599 136.7 78.34 136.313C79.3202 135.925 80.3669 135.734 81.4205 135.752C82.4741 135.77 83.5138 135.996 84.4804 136.416C85.4469 136.837 86.3214 137.445 87.0538 138.205C87.7862 138.964 88.3622 139.861 88.749 140.844C89.1357 141.827 89.3256 142.877 89.3078 143.933L89.1047 157.291C89.1092 157.979 88.9775 158.661 88.7171 159.297C88.4567 159.933 88.0729 160.511 87.5879 160.998C87.1029 161.484 86.5264 161.869 85.8919 162.13C85.2574 162.391 84.5775 162.523 83.8916 162.519Z" fill="#437CFF"/>
</g>
<path d="M192.001 106.125L142.609 124.28C137.756 126.064 135.263 131.456 137.042 136.323L148.634 168.037C150.413 172.904 155.79 175.403 160.644 173.619L210.035 155.464C214.888 153.68 217.381 148.288 215.602 143.421L204.01 111.708C202.231 106.84 196.854 104.341 192.001 106.125Z" fill="#437CFF"/>
<path d="M169.665 153.074L153.078 154.179L150.96 149.734L162.273 137.552L164.441 142.105L156.725 149.7L167.485 148.494L169.665 153.074Z" fill="url(#paint30_linear_1027_5154)"/>
<path d="M172.957 157.45L172.349 127.299L176.793 125.178L177.403 155.332L172.957 157.45Z" fill="url(#paint31_linear_1027_5154)"/>
<path d="M187.662 144.503L185.481 139.924L193.198 132.33L182.438 133.534L180.271 128.982L196.858 127.875L198.975 132.322L187.662 144.503Z" fill="url(#paint32_linear_1027_5154)"/>
<path d="M170.991 151.764L154.406 152.87L152.288 148.424L163.602 136.243L165.771 140.797L158.053 148.389L168.813 147.184L170.991 151.764Z" fill="#74BCFF"/>
<path d="M171.351 151.973L154.265 153.112L152.017 148.38L163.67 135.832L166.056 140.843L158.695 148.084L168.953 146.935L171.351 151.973ZM154.549 152.627L170.638 151.554L168.674 147.431L157.41 148.692L165.487 140.743L163.539 136.651L152.567 148.467L154.549 152.627Z" fill="url(#paint33_linear_1027_5154)"/>
<path d="M174.286 156.14L173.674 125.99L178.12 123.873L178.732 154.022L174.286 156.14Z" fill="#74BCFF"/>
<path d="M174.062 156.505L173.443 125.844L178.35 123.513L178.967 154.168L174.062 156.505ZM173.913 126.135L174.51 155.772L178.496 153.875L177.899 124.238L173.913 126.135Z" fill="url(#paint34_linear_1027_5154)"/>
<path d="M188.991 143.193L186.81 138.613L194.527 131.02L183.765 132.22L181.598 127.668L198.187 126.569L200.305 131.016L188.991 143.193Z" fill="#74BCFF"/>
<path d="M188.927 143.601L186.53 138.569L193.889 131.324L183.63 132.478L181.243 127.468L198.33 126.328L200.583 131.059L188.927 143.601ZM187.09 138.664L189.053 142.784L200.026 130.969L198.044 126.807L181.955 127.881L183.904 131.973L195.168 130.712L187.09 138.664Z" fill="url(#paint35_linear_1027_5154)"/>
</g>
<defs>
<linearGradient id="paint0_linear_1027_5154" x1="13.9191" y1="120.737" x2="283.79" y2="120.737" gradientUnits="userSpaceOnUse">
<stop stop-color="#2B59C3"/>
<stop offset="0.3" stop-color="#2B59C3"/>
<stop offset="0.52" stop-color="#2B57BD"/>
<stop offset="0.71" stop-color="#254CA5"/>
<stop offset="0.89" stop-color="#14398F"/>
<stop offset="1" stop-color="#002F9B"/>
</linearGradient>
<linearGradient id="paint1_linear_1027_5154" x1="138.863" y1="212.855" x2="162.728" y2="218.298" gradientUnits="userSpaceOnUse">
<stop stop-color="#2B59C3"/>
<stop offset="0.3" stop-color="#2B59C3"/>
<stop offset="0.52" stop-color="#2B57BD"/>
<stop offset="0.71" stop-color="#254CA5"/>
<stop offset="0.89" stop-color="#14398F"/>
<stop offset="1" stop-color="#002F9B"/>
</linearGradient>
<linearGradient id="paint2_linear_1027_5154" x1="115.02" y1="219.704" x2="138.206" y2="224.66" gradientUnits="userSpaceOnUse">
<stop stop-color="#2B59C3"/>
<stop offset="0.3" stop-color="#2B59C3"/>
<stop offset="0.52" stop-color="#2B57BD"/>
<stop offset="0.71" stop-color="#254CA5"/>
<stop offset="0.89" stop-color="#14398F"/>
<stop offset="1" stop-color="#002F9B"/>
</linearGradient>
<linearGradient id="paint3_linear_1027_5154" x1="90.458" y1="226.573" x2="113.426" y2="231.341" gradientUnits="userSpaceOnUse">
<stop stop-color="#2B59C3"/>
<stop offset="0.3" stop-color="#2B59C3"/>
<stop offset="0.52" stop-color="#2B57BD"/>
<stop offset="0.71" stop-color="#254CA5"/>
<stop offset="0.89" stop-color="#14398F"/>
<stop offset="1" stop-color="#002F9B"/>
</linearGradient>
<linearGradient id="paint4_linear_1027_5154" x1="162.668" y1="205.961" x2="187.693" y2="212.026" gradientUnits="userSpaceOnUse">
<stop stop-color="#2B59C3"/>
<stop offset="0.3" stop-color="#2B59C3"/>
<stop offset="0.52" stop-color="#2B57BD"/>
<stop offset="0.71" stop-color="#254CA5"/>
<stop offset="0.89" stop-color="#14398F"/>
<stop offset="1" stop-color="#002F9B"/>
</linearGradient>
<linearGradient id="paint5_linear_1027_5154" x1="186.503" y1="199.092" x2="212.388" y2="205.746" gradientUnits="userSpaceOnUse">
<stop stop-color="#2B59C3"/>
<stop offset="0.3" stop-color="#2B59C3"/>
<stop offset="0.52" stop-color="#2B57BD"/>
<stop offset="0.71" stop-color="#254CA5"/>
<stop offset="0.89" stop-color="#14398F"/>
<stop offset="1" stop-color="#002F9B"/>
</linearGradient>
<linearGradient id="paint6_linear_1027_5154" x1="210.316" y1="192.202" x2="237.051" y2="199.488" gradientUnits="userSpaceOnUse">
<stop stop-color="#2B59C3"/>
<stop offset="0.3" stop-color="#2B59C3"/>
<stop offset="0.52" stop-color="#2B57BD"/>
<stop offset="0.71" stop-color="#254CA5"/>
<stop offset="0.89" stop-color="#14398F"/>
<stop offset="1" stop-color="#002F9B"/>
</linearGradient>
<linearGradient id="paint7_linear_1027_5154" x1="233.264" y1="180.065" x2="284.384" y2="199.607" gradientUnits="userSpaceOnUse">
<stop stop-color="#2B59C3"/>
<stop offset="0.3" stop-color="#2B59C3"/>
<stop offset="0.52" stop-color="#2B57BD"/>
<stop offset="0.71" stop-color="#254CA5"/>
<stop offset="0.89" stop-color="#14398F"/>
<stop offset="1" stop-color="#002F9B"/>
</linearGradient>
<linearGradient id="paint8_linear_1027_5154" x1="65.8866" y1="233.557" x2="89.4471" y2="238.571" gradientUnits="userSpaceOnUse">
<stop stop-color="#2B59C3"/>
<stop offset="0.3" stop-color="#2B59C3"/>
<stop offset="0.52" stop-color="#2B57BD"/>
<stop offset="0.71" stop-color="#254CA5"/>
<stop offset="0.89" stop-color="#14398F"/>
<stop offset="1" stop-color="#002F9B"/>
</linearGradient>
<linearGradient id="paint9_linear_1027_5154" x1="177.751" y1="213.553" x2="204.745" y2="220.139" gradientUnits="userSpaceOnUse">
<stop stop-color="#2B59C3"/>
<stop offset="0.3" stop-color="#2B59C3"/>
<stop offset="0.52" stop-color="#2B57BD"/>
<stop offset="0.71" stop-color="#254CA5"/>
<stop offset="0.89" stop-color="#14398F"/>
<stop offset="1" stop-color="#002F9B"/>
</linearGradient>
<linearGradient id="paint10_linear_1027_5154" x1="202.739" y1="206.327" x2="230.685" y2="213.567" gradientUnits="userSpaceOnUse">
<stop stop-color="#2B59C3"/>
<stop offset="0.3" stop-color="#2B59C3"/>
<stop offset="0.52" stop-color="#2B57BD"/>
<stop offset="0.71" stop-color="#254CA5"/>
<stop offset="0.89" stop-color="#14398F"/>
<stop offset="1" stop-color="#002F9B"/>
</linearGradient>
<linearGradient id="paint11_linear_1027_5154" x1="227.727" y1="199.115" x2="256.604" y2="207.067" gradientUnits="userSpaceOnUse">
<stop stop-color="#2B59C3"/>
<stop offset="0.3" stop-color="#2B59C3"/>
<stop offset="0.52" stop-color="#2B57BD"/>
<stop offset="0.71" stop-color="#254CA5"/>
<stop offset="0.89" stop-color="#14398F"/>
<stop offset="1" stop-color="#002F9B"/>
</linearGradient>
<linearGradient id="paint12_linear_1027_5154" x1="62.9298" y1="243.232" x2="101.021" y2="253.358" gradientUnits="userSpaceOnUse">
<stop stop-color="#2B59C3"/>
<stop offset="0.3" stop-color="#2B59C3"/>
<stop offset="0.52" stop-color="#2B57BD"/>
<stop offset="0.71" stop-color="#254CA5"/>
<stop offset="0.89" stop-color="#14398F"/>
<stop offset="1" stop-color="#002F9B"/>
</linearGradient>
<linearGradient id="paint13_linear_1027_5154" x1="127.775" y1="227.97" x2="152.757" y2="233.337" gradientUnits="userSpaceOnUse">
<stop stop-color="#2B59C3"/>
<stop offset="0.3" stop-color="#2B59C3"/>
<stop offset="0.52" stop-color="#2B57BD"/>
<stop offset="0.71" stop-color="#254CA5"/>
<stop offset="0.89" stop-color="#14398F"/>
<stop offset="1" stop-color="#002F9B"/>
</linearGradient>
<linearGradient id="paint14_linear_1027_5154" x1="102.53" y1="235.181" x2="126.731" y2="240.102" gradientUnits="userSpaceOnUse">
<stop stop-color="#2B59C3"/>
<stop offset="0.3" stop-color="#2B59C3"/>
<stop offset="0.52" stop-color="#2B57BD"/>
<stop offset="0.71" stop-color="#254CA5"/>
<stop offset="0.89" stop-color="#14398F"/>
<stop offset="1" stop-color="#002F9B"/>
</linearGradient>
<linearGradient id="paint15_linear_1027_5154" x1="252.249" y1="189.143" x2="294.57" y2="203.822" gradientUnits="userSpaceOnUse">
<stop stop-color="#2B59C3"/>
<stop offset="0.3" stop-color="#2B59C3"/>
<stop offset="0.52" stop-color="#2B57BD"/>
<stop offset="0.71" stop-color="#254CA5"/>
<stop offset="0.89" stop-color="#14398F"/>
<stop offset="1" stop-color="#002F9B"/>
</linearGradient>
<linearGradient id="paint16_linear_1027_5154" x1="159.393" y1="232.053" x2="186.843" y2="238.23" gradientUnits="userSpaceOnUse">
<stop stop-color="#2B59C3"/>
<stop offset="0.3" stop-color="#2B59C3"/>
<stop offset="0.52" stop-color="#2B57BD"/>
<stop offset="0.71" stop-color="#254CA5"/>
<stop offset="0.89" stop-color="#14398F"/>
<stop offset="1" stop-color="#002F9B"/>
</linearGradient>
<linearGradient id="paint17_linear_1027_5154" x1="146.651" y1="261.715" x2="231.016" y2="287.53" gradientUnits="userSpaceOnUse">
<stop stop-color="#2B59C3"/>
<stop offset="0.3" stop-color="#2B59C3"/>
<stop offset="0.52" stop-color="#2B57BD"/>
<stop offset="0.71" stop-color="#254CA5"/>
<stop offset="0.89" stop-color="#14398F"/>
<stop offset="1" stop-color="#002F9B"/>
</linearGradient>
<linearGradient id="paint18_linear_1027_5154" x1="185.649" y1="224.46" x2="214.498" y2="231.394" gradientUnits="userSpaceOnUse">
<stop stop-color="#2B59C3"/>
<stop offset="0.3" stop-color="#2B59C3"/>
<stop offset="0.52" stop-color="#2B57BD"/>
<stop offset="0.71" stop-color="#254CA5"/>
<stop offset="0.89" stop-color="#14398F"/>
<stop offset="1" stop-color="#002F9B"/>
</linearGradient>
<linearGradient id="paint19_linear_1027_5154" x1="211.912" y1="216.871" x2="241.851" y2="224.541" gradientUnits="userSpaceOnUse">
<stop stop-color="#2B59C3"/>
<stop offset="0.3" stop-color="#2B59C3"/>
<stop offset="0.52" stop-color="#2B57BD"/>
<stop offset="0.71" stop-color="#254CA5"/>
<stop offset="0.89" stop-color="#14398F"/>
<stop offset="1" stop-color="#002F9B"/>
</linearGradient>
<linearGradient id="paint20_linear_1027_5154" x1="60.2664" y1="255.984" x2="104.98" y2="268.258" gradientUnits="userSpaceOnUse">
<stop stop-color="#2B59C3"/>
<stop offset="0.3" stop-color="#2B59C3"/>
<stop offset="0.52" stop-color="#2B57BD"/>
<stop offset="0.71" stop-color="#254CA5"/>
<stop offset="0.89" stop-color="#14398F"/>
<stop offset="1" stop-color="#002F9B"/>
</linearGradient>
<linearGradient id="paint21_linear_1027_5154" x1="106.746" y1="247.211" x2="132.292" y2="252.256" gradientUnits="userSpaceOnUse">
<stop stop-color="#2B59C3"/>
<stop offset="0.3" stop-color="#2B59C3"/>
<stop offset="0.52" stop-color="#2B57BD"/>
<stop offset="0.71" stop-color="#254CA5"/>
<stop offset="0.89" stop-color="#14398F"/>
<stop offset="1" stop-color="#002F9B"/>
</linearGradient>
<linearGradient id="paint22_linear_1027_5154" x1="236.87" y1="201.526" x2="302.72" y2="227.028" gradientUnits="userSpaceOnUse">
<stop stop-color="#2B59C3"/>
<stop offset="0.3" stop-color="#2B59C3"/>
<stop offset="0.52" stop-color="#2B57BD"/>
<stop offset="0.71" stop-color="#254CA5"/>
<stop offset="0.89" stop-color="#14398F"/>
<stop offset="1" stop-color="#002F9B"/>
</linearGradient>
<linearGradient id="paint23_linear_1027_5154" x1="133.096" y1="239.622" x2="159.725" y2="245.234" gradientUnits="userSpaceOnUse">
<stop stop-color="#2B59C3"/>
<stop offset="0.3" stop-color="#2B59C3"/>
<stop offset="0.52" stop-color="#2B57BD"/>
<stop offset="0.71" stop-color="#254CA5"/>
<stop offset="0.89" stop-color="#14398F"/>
<stop offset="1" stop-color="#002F9B"/>
</linearGradient>
<linearGradient id="paint24_linear_1027_5154" x1="282.084" y1="211.219" x2="316.732" y2="221.25" gradientUnits="userSpaceOnUse">
<stop stop-color="#2B59C3"/>
<stop offset="0.3" stop-color="#2B59C3"/>
<stop offset="0.52" stop-color="#2B57BD"/>
<stop offset="0.71" stop-color="#254CA5"/>
<stop offset="0.89" stop-color="#14398F"/>
<stop offset="1" stop-color="#002F9B"/>
</linearGradient>
<linearGradient id="paint25_linear_1027_5154" x1="254.377" y1="219.212" x2="287.935" y2="228.345" gradientUnits="userSpaceOnUse">
<stop stop-color="#2B59C3"/>
<stop offset="0.3" stop-color="#2B59C3"/>
<stop offset="0.52" stop-color="#2B57BD"/>
<stop offset="0.71" stop-color="#254CA5"/>
<stop offset="0.89" stop-color="#14398F"/>
<stop offset="1" stop-color="#002F9B"/>
</linearGradient>
<linearGradient id="paint26_linear_1027_5154" x1="116.571" y1="234.419" x2="249.786" y2="291.502" gradientUnits="userSpaceOnUse">
<stop stop-color="#2B59C3"/>
<stop offset="0.3" stop-color="#2B59C3"/>
<stop offset="0.52" stop-color="#2B57BD"/>
<stop offset="0.71" stop-color="#254CA5"/>
<stop offset="0.89" stop-color="#14398F"/>
<stop offset="1" stop-color="#002F9B"/>
</linearGradient>
<linearGradient id="paint27_linear_1027_5154" x1="152.772" y1="220.784" x2="178.491" y2="226.676" gradientUnits="userSpaceOnUse">
<stop stop-color="#2B59C3"/>
<stop offset="0.3" stop-color="#2B59C3"/>
<stop offset="0.52" stop-color="#2B57BD"/>
<stop offset="0.71" stop-color="#254CA5"/>
<stop offset="0.89" stop-color="#14398F"/>
<stop offset="1" stop-color="#002F9B"/>
</linearGradient>
<linearGradient id="paint28_linear_1027_5154" x1="92.0683" y1="265.909" x2="119.151" y2="271.028" gradientUnits="userSpaceOnUse">
<stop stop-color="#2B59C3"/>
<stop offset="0.3" stop-color="#2B59C3"/>
<stop offset="0.52" stop-color="#2B57BD"/>
<stop offset="0.71" stop-color="#254CA5"/>
<stop offset="0.89" stop-color="#14398F"/>
<stop offset="1" stop-color="#002F9B"/>
</linearGradient>
<linearGradient id="paint29_linear_1027_5154" x1="57.9702" y1="274.217" x2="91.1809" y2="281.371" gradientUnits="userSpaceOnUse">
<stop stop-color="#2B59C3"/>
<stop offset="0.3" stop-color="#2B59C3"/>
<stop offset="0.52" stop-color="#2B57BD"/>
<stop offset="0.71" stop-color="#254CA5"/>
<stop offset="0.89" stop-color="#14398F"/>
<stop offset="1" stop-color="#002F9B"/>
</linearGradient>
<linearGradient id="paint30_linear_1027_5154" x1="149.068" y1="145.548" x2="168.275" y2="142.914" gradientUnits="userSpaceOnUse">
<stop stop-color="#2B59C3"/>
<stop offset="0.3" stop-color="#2B59C3"/>
<stop offset="0.52" stop-color="#2B57BD"/>
<stop offset="0.71" stop-color="#254CA5"/>
<stop offset="0.89" stop-color="#14398F"/>
<stop offset="1" stop-color="#002F9B"/>
</linearGradient>
<linearGradient id="paint31_linear_1027_5154" x1="165.865" y1="135.513" x2="180.49" y2="132.184" gradientUnits="userSpaceOnUse">
<stop stop-color="#2B59C3"/>
<stop offset="0.3" stop-color="#2B59C3"/>
<stop offset="0.52" stop-color="#2B57BD"/>
<stop offset="0.71" stop-color="#254CA5"/>
<stop offset="0.89" stop-color="#14398F"/>
<stop offset="1" stop-color="#002F9B"/>
</linearGradient>
<linearGradient id="paint32_linear_1027_5154" x1="180.801" y1="132.839" x2="200.008" y2="130.206" gradientUnits="userSpaceOnUse">
<stop stop-color="#2B59C3"/>
<stop offset="0.3" stop-color="#2B59C3"/>
<stop offset="0.52" stop-color="#2B57BD"/>
<stop offset="0.71" stop-color="#254CA5"/>
<stop offset="0.89" stop-color="#14398F"/>
<stop offset="1" stop-color="#002F9B"/>
</linearGradient>
<linearGradient id="paint33_linear_1027_5154" x1="150.077" y1="144.104" x2="169.886" y2="141.363" gradientUnits="userSpaceOnUse">
<stop stop-color="#2B59C3"/>
<stop offset="0.3" stop-color="#2B59C3"/>
<stop offset="0.52" stop-color="#2B57BD"/>
<stop offset="0.71" stop-color="#254CA5"/>
<stop offset="0.89" stop-color="#14398F"/>
<stop offset="1" stop-color="#002F9B"/>
</linearGradient>
<linearGradient id="paint34_linear_1027_5154" x1="166.823" y1="134.161" x2="182.175" y2="130.699" gradientUnits="userSpaceOnUse">
<stop stop-color="#2B59C3"/>
<stop offset="0.3" stop-color="#2B59C3"/>
<stop offset="0.52" stop-color="#2B57BD"/>
<stop offset="0.71" stop-color="#254CA5"/>
<stop offset="0.89" stop-color="#14398F"/>
<stop offset="1" stop-color="#002F9B"/>
</linearGradient>
<linearGradient id="paint35_linear_1027_5154" x1="181.799" y1="131.476" x2="201.614" y2="128.736" gradientUnits="userSpaceOnUse">
<stop stop-color="#2B59C3"/>
<stop offset="0.3" stop-color="#2B59C3"/>
<stop offset="0.52" stop-color="#2B57BD"/>
<stop offset="0.71" stop-color="#254CA5"/>
<stop offset="0.89" stop-color="#14398F"/>
<stop offset="1" stop-color="#002F9B"/>
</linearGradient>
<clipPath id="clip0_1027_5154">
<rect width="372" height="343" fill="white"/>
</clipPath>
</defs>
</svg>
